<svg width="24" height="24" viewBox="0 0 42 42" fill="none" xmlns="http://www.w3.org/2000/svg">
<path d="M20.4873 4.01275C20.325 3.84993 20.1322 3.7208 19.9198 3.6328C19.7075 3.5448 19.4799 3.49967 19.25 3.5H10.5C10.2702 3.49967 10.0425 3.5448 9.83016 3.6328C9.61782 3.7208 9.42499 3.84993 9.26275 4.01275L4.01275 9.26275C3.84993 9.42499 3.7208 9.61782 3.6328 9.83016C3.5448 10.0425 3.49967 10.2702 3.5 10.5V19.25C3.5 19.7155 3.68375 20.16 4.01275 20.4873L21.5128 37.9873C21.6749 38.1503 21.8677 38.2797 22.08 38.368C22.2923 38.4564 22.52 38.5018 22.75 38.5018C22.98 38.5018 23.2077 38.4564 23.42 38.368C23.6323 38.2797 23.8251 38.1503 23.9873 37.9873L37.9873 23.9873C38.1499 23.8249 38.2789 23.632 38.367 23.4197C38.455 23.2074 38.5004 22.9798 38.5004 22.75C38.5004 22.5202 38.455 22.2926 38.367 22.0803C38.2789 21.868 38.1499 21.6751 37.9873 21.5128L20.4873 4.01275ZM14.6178 17.5C14.2334 17.5096 13.851 17.4422 13.4931 17.3017C13.1352 17.1613 12.809 16.9507 12.5337 16.6823C12.2584 16.4139 12.0396 16.0931 11.8902 15.7388C11.7408 15.3846 11.6637 15.004 11.6636 14.6195C11.6635 14.235 11.7403 13.8544 11.8895 13.5001C12.0387 13.1457 12.2573 12.8248 12.5324 12.5562C12.8076 12.2877 13.1336 12.0768 13.4915 11.9362C13.8493 11.7955 14.2316 11.7279 14.616 11.7373C15.3679 11.7556 16.0829 12.067 16.6083 12.6052C17.1337 13.1434 17.4279 13.8656 17.4281 14.6178C17.4283 15.3699 17.1346 16.0923 16.6095 16.6308C16.0844 17.1693 15.3696 17.4812 14.6178 17.5Z" fill="#27AE7D"/>
</svg>
