<svg width="73" height="73" viewBox="0 0 73 73" fill="none" xmlns="http://www.w3.org/2000/svg">
<path d="M36.5002 6.0835C30.4843 6.0835 24.6036 7.8674 19.6016 11.2096C14.5996 14.5519 10.701 19.3023 8.39884 24.8602C6.09668 30.4181 5.49432 36.5339 6.66796 42.4342C7.84159 48.3344 10.7385 53.7541 14.9923 58.008C19.2462 62.2618 24.6659 65.1588 30.5662 66.3324C36.4664 67.506 42.5822 66.9037 48.1401 64.6015C53.698 62.2993 58.4485 58.4008 61.7907 53.3988C65.1329 48.3968 66.9168 42.516 66.9168 36.5002C66.9168 32.5058 66.1301 28.5505 64.6015 24.8602C63.0729 21.1699 60.8325 17.8168 58.008 14.9923C55.1836 12.1679 51.8305 9.92741 48.1401 8.39883C44.4498 6.87025 40.4945 6.0835 36.5002 6.0835ZM36.5002 45.6252C34.6954 45.6252 32.9312 45.09 31.4306 44.0873C29.93 43.0847 28.7604 41.6595 28.0698 39.9921C27.3791 38.3248 27.1984 36.49 27.5505 34.72C27.9026 32.9499 28.7717 31.324 30.0478 30.0478C31.324 28.7717 32.9499 27.9026 34.72 27.5505C36.4901 27.1984 38.3248 27.3791 39.9922 28.0698C41.6595 28.7604 43.0847 29.93 44.0873 31.4306C45.09 32.9312 45.6252 34.6954 45.6252 36.5002C45.6252 38.9203 44.6638 41.2412 42.9525 42.9525C41.2413 44.6638 38.9203 45.6252 36.5002 45.6252ZM44.8648 23.8164C43.2483 22.7435 41.4415 21.9898 39.5418 21.596V12.471C43.8683 13.0125 47.9675 14.7153 51.4043 17.3985L44.8648 23.8164ZM33.4585 21.596C31.5588 21.9898 29.752 22.7435 28.1356 23.8164L21.596 17.3072C25.0329 14.624 29.132 12.9213 33.4585 12.3797V21.596ZM23.8164 28.1356C22.7435 29.752 21.9899 31.5588 21.596 33.4585H12.471C12.9859 29.1411 14.6567 25.0427 17.3073 21.596L23.8164 28.1356ZM21.596 39.5418C21.9899 41.4415 22.7435 43.2483 23.8164 44.8647L17.3073 51.4043C14.624 47.9675 12.9213 43.8683 12.3798 39.5418H21.596ZM28.1356 49.1839C29.752 50.2568 31.5588 51.0105 33.4585 51.4043V60.5293C29.132 59.9878 25.0329 58.2851 21.596 55.6018L28.1356 49.1839ZM39.5418 51.4043C41.4415 51.0105 43.2483 50.2568 44.8648 49.1839L51.4043 55.6931C47.9675 58.3763 43.8683 60.079 39.5418 60.6206V51.4043ZM49.1839 44.8647C50.2568 43.2483 51.0105 41.4415 51.4043 39.5418H60.5293C59.9878 43.8683 58.2851 47.9675 55.6018 51.4043L49.1839 44.8647ZM51.4043 33.4585C51.0105 31.5588 50.2568 29.752 49.1839 28.1356L55.6931 21.596C58.3763 25.0329 60.079 29.132 60.6206 33.4585H51.4043Z" fill="black"/>
</svg>
