<svg width="62" height="62" viewBox="0 0 62 62" fill="none" xmlns="http://www.w3.org/2000/svg">
<path d="M6.05522 39.4499L11.2219 48.3883C11.5649 48.9811 12.1293 49.4135 12.7911 49.5903C13.4528 49.7672 14.1577 49.6739 14.7507 49.3312L18.3571 47.249C19.8554 48.4296 21.5113 49.3983 23.2525 50.1217V54.2498C23.2525 54.935 23.5246 55.5921 24.0091 56.0765C24.4936 56.561 25.1507 56.8332 25.8358 56.8332H36.1691C36.8543 56.8332 37.5114 56.561 37.9958 56.0765C38.4803 55.5921 38.7525 54.935 38.7525 54.2498V50.1217C40.5073 49.3911 42.1542 48.4246 43.6479 47.249L47.2542 49.3312C48.4865 50.0416 50.0726 49.6153 50.7831 48.3883L55.9497 39.4499C56.2897 38.8563 56.3814 38.1523 56.2048 37.4914C56.0282 36.8304 55.5976 36.266 55.0068 35.9211L51.4625 33.8725C51.7394 31.9673 51.7377 30.0319 51.4573 28.1272L55.0016 26.0786C56.2313 25.3682 56.6576 23.7794 55.9446 22.5498L50.7779 13.6114C50.4349 13.0185 49.8704 12.5861 49.2087 12.4093C48.547 12.2325 47.8421 12.3257 47.2491 12.6685L43.6427 14.7507C42.151 13.5736 40.5047 12.6071 38.7499 11.878V7.74984C38.7499 7.06469 38.4777 6.40761 37.9933 5.92314C37.5088 5.43868 36.8517 5.1665 36.1666 5.1665H25.8332C25.1481 5.1665 24.491 5.43868 24.0065 5.92314C23.5221 6.40761 23.2499 7.06469 23.2499 7.74984V11.878C21.4951 12.6086 19.8481 13.5751 18.3545 14.7507L14.7507 12.6685C14.4572 12.4984 14.133 12.3879 13.7967 12.3433C13.4604 12.2986 13.1186 12.3207 12.7908 12.4083C12.463 12.4959 12.1558 12.6472 11.8866 12.8537C11.6174 13.0601 11.3915 13.3176 11.2219 13.6114L6.05522 22.5498C5.71522 23.1434 5.62355 23.8474 5.80015 24.5083C5.97676 25.1692 6.40734 25.7336 6.99814 26.0786L10.5425 28.1272C10.2638 30.0321 10.2638 31.9675 10.5425 33.8725L6.99814 35.9211C5.76847 36.6315 5.34222 38.2203 6.05522 39.4499ZM30.9999 20.6665C36.6987 20.6665 41.3332 25.301 41.3332 30.9998C41.3332 36.6987 36.6987 41.3332 30.9999 41.3332C25.3011 41.3332 20.6666 36.6987 20.6666 30.9998C20.6666 25.301 25.3011 20.6665 30.9999 20.6665Z" fill="black"/>
</svg>
