<svg width="56" height="56" viewBox="0 0 56 56" fill="none" xmlns="http://www.w3.org/2000/svg">
<path d="M50.1946 14.2615L41.118 23.3359L32.8696 15.0852L41.944 6.01088C39.1752 4.87264 36.1316 4.57909 33.1963 5.16718C30.2611 5.75527 27.5655 7.19872 25.4489 9.31575C23.3324 11.4328 21.8896 14.1287 21.3022 17.0641C20.7148 19.9995 21.0091 23.0431 22.148 25.8115L7.50396 40.4532C7.28709 40.6697 7.11503 40.9269 6.99764 41.2099C6.88025 41.493 6.81982 41.7964 6.81982 42.1029C6.81982 42.4093 6.88025 42.7128 6.99764 42.9958C7.11503 43.2789 7.28709 43.536 7.50396 43.7525L12.4553 48.7039C12.6718 48.9207 12.9289 49.0928 13.212 49.2102C13.4951 49.3276 13.7985 49.388 14.105 49.388C14.4114 49.388 14.7148 49.3276 14.9979 49.2102C15.281 49.0928 15.5381 48.9207 15.7546 48.7039L30.3963 34.0599C33.165 35.1997 36.2091 35.4946 39.1452 34.9075C42.0812 34.3203 44.7778 32.8774 46.8953 30.7605C49.0114 28.6426 50.4537 25.946 51.0408 23.0101C51.6279 20.0743 51.3335 17.0304 50.1946 14.2615Z" fill="black"/>
</svg>
