<svg width="62" height="62" viewBox="0 0 62 62" fill="none" xmlns="http://www.w3.org/2000/svg">
<path d="M53.6608 26.2339L50.1268 15.6319C49.6142 14.0883 48.6281 12.7456 47.3087 11.7944C45.9893 10.8432 44.4038 10.3321 42.7773 10.3335H19.2224C17.5959 10.3321 16.0103 10.8432 14.691 11.7944C13.3716 12.7456 12.3855 14.0883 11.8728 15.6319L8.33884 26.2339C7.39908 26.6271 6.59654 27.2894 6.03209 28.1374C5.46765 28.9855 5.1665 29.9815 5.1665 31.0002V43.9168C5.1665 45.8233 6.21017 47.4715 7.74984 48.3679V54.2502C7.74984 54.9353 8.02201 55.5924 8.50648 56.0769C8.99095 56.5613 9.64803 56.8335 10.3332 56.8335H12.9165C13.6016 56.8335 14.2587 56.5613 14.7432 56.0769C15.2277 55.5924 15.4998 54.9353 15.4998 54.2502V49.0835H46.4998V54.2502C46.4998 54.9353 46.772 55.5924 47.2565 56.0769C47.7409 56.5613 48.398 56.8335 49.0832 56.8335H51.6665C52.3517 56.8335 53.0087 56.5613 53.4932 56.0769C53.9777 55.5924 54.2498 54.9353 54.2498 54.2502V48.3679C55.0336 47.9184 55.6851 47.2703 56.1386 46.4889C56.5921 45.7075 56.8317 44.8203 56.8332 43.9168V31.0002C56.8332 29.9815 56.532 28.9855 55.9676 28.1374C55.4031 27.2894 54.6006 26.6271 53.6608 26.2339ZM19.2224 15.5002H42.7747C43.8881 15.5002 44.8749 16.208 45.2263 17.2672L48.0834 25.8335H13.9163L16.7708 17.2672C16.9422 16.7526 17.2713 16.3049 17.7113 15.9878C18.1513 15.6706 18.68 15.5 19.2224 15.5002ZM14.2082 41.3335C13.6991 41.3333 13.1951 41.2329 12.7249 41.0379C12.2546 40.843 11.8274 40.5573 11.4676 40.1972C11.1078 39.8372 10.8224 39.4098 10.6277 38.9394C10.4331 38.469 10.333 37.965 10.3332 37.4559C10.3333 36.9469 10.4338 36.4429 10.6287 35.9726C10.8237 35.5024 11.1094 35.0752 11.4694 34.7153C11.8295 34.3555 12.2569 34.0701 12.7273 33.8755C13.1976 33.6808 13.7017 33.5807 14.2108 33.5809C15.2388 33.5813 16.2246 33.99 16.9513 34.7172C17.678 35.4444 18.0861 36.4304 18.0858 37.4585C18.0854 38.4866 17.6767 39.4724 16.9495 40.1991C16.2223 40.9258 15.2362 41.3338 14.2082 41.3335ZM47.7915 41.3335C47.2825 41.3333 46.7784 41.2329 46.3082 41.0379C45.838 40.843 45.4108 40.5573 45.0509 40.1972C44.6911 39.8372 44.4057 39.4098 44.2111 38.9394C44.0164 38.469 43.9163 37.965 43.9165 37.4559C43.9167 36.9469 44.0171 36.4429 44.2121 35.9726C44.407 35.5024 44.6927 35.0752 45.0528 34.7153C45.4128 34.3555 45.8402 34.0701 46.3106 33.8755C46.781 33.6808 47.285 33.5807 47.7941 33.5809C48.8221 33.5813 49.808 33.99 50.5347 34.7172C51.2614 35.4444 51.6694 36.4304 51.6691 37.4585C51.6687 38.4866 51.26 39.4724 50.5328 40.1991C49.8057 40.9258 48.8196 41.3338 47.7915 41.3335Z" fill="black"/>
</svg>
