<svg width="60" height="60" viewBox="0 0 60 60" fill="none" xmlns="http://www.w3.org/2000/svg">
<path d="M30 5C16.215 5 5 16.215 5 30C5 43.785 16.215 55 30 55C43.785 55 55 43.785 55 30C55 16.215 43.785 5 30 5ZM13.8825 27.7625L20.03 24.69L16.1125 22.08L18.885 17.92L26.385 22.92C26.7496 23.1629 27.044 23.4974 27.2386 23.8899C27.4332 24.2825 27.5213 24.7193 27.4939 25.1565C27.4666 25.5938 27.3248 26.0162 27.0828 26.3815C26.8408 26.7467 26.507 27.0419 26.115 27.2375L16.115 32.2375L13.8825 27.7625ZM20 42.5C20 42.5 22.5 35 30 35C37.5 35 40 42.5 40 42.5H20ZM43.8825 32.2375L33.8825 27.2375C33.4905 27.0419 33.1567 26.7467 32.9147 26.3815C32.6727 26.0162 32.5309 25.5938 32.5036 25.1565C32.4762 24.7193 32.5643 24.2825 32.7589 23.8899C32.9535 23.4974 33.2479 23.1629 33.6125 22.92L41.1125 17.92L43.885 22.08L39.97 24.69L46.1175 27.7625L43.8825 32.2375Z" fill="black"/>
</svg>
